<svg width="47" height="29" viewBox="0 0 47 29" fill="none" xmlns="http://www.w3.org/2000/svg">
<path d="M15.2395 0H25.211C26.7022 -3.39913e-06 26.6534 0.594041 26.528 1.78212L13.7343 14.581C17.5599 18.5773 25.4744 26.7642 26.528 27.5419C27.5816 28.3196 26.089 28.838 25.211 29H15.2395L7.62939e-06 14.581L15.2395 0Z" fill="white"/>
<path d="M35.3491 0H45.3206C46.8119 -3.39913e-06 46.7631 0.594041 46.6376 1.78212L33.844 14.581C37.6695 18.5773 45.584 26.7642 46.6376 27.5419C47.6912 28.3196 46.1986 28.838 45.3206 29H35.3491L20.1096 14.581L35.3491 0Z" fill="white"/>
</svg>
